<svg width="24" height="24" viewBox="0 0 24 24" fill="none" xmlns="http://www.w3.org/2000/svg">
<g id="Icons / filtering">
<path id="Vector" d="M21.1428 6.85725H8.5714M6.28569 6.85725H2.85712M21.1428 18.2858H8.5714M6.28569 18.2858H2.85712M15.4285 12.5715H2.85712M21.1428 12.5715H17.7143M7.42855 4.57153C7.73165 4.57153 8.02234 4.69194 8.23667 4.90627C8.45099 5.1206 8.5714 5.41129 8.5714 5.71439V8.0001C8.5714 8.30321 8.45099 8.5939 8.23667 8.80823C8.02234 9.02255 7.73165 9.14296 7.42855 9.14296C7.12544 9.14296 6.83475 9.02255 6.62042 8.80823C6.4061 8.5939 6.28569 8.30321 6.28569 8.0001V5.71439C6.28569 5.41129 6.4061 5.1206 6.62042 4.90627C6.83475 4.69194 7.12544 4.57153 7.42855 4.57153V4.57153ZM7.42855 16.0001C7.73165 16.0001 8.02234 16.1205 8.23667 16.3348C8.45099 16.5492 8.5714 16.8399 8.5714 17.143V19.4287C8.5714 19.7318 8.45099 20.0225 8.23667 20.2368C8.02234 20.4511 7.73165 20.5715 7.42855 20.5715C7.12544 20.5715 6.83475 20.4511 6.62042 20.2368C6.4061 20.0225 6.28569 19.7318 6.28569 19.4287V17.143C6.28569 16.8399 6.4061 16.5492 6.62042 16.3348C6.83475 16.1205 7.12544 16.0001 7.42855 16.0001ZM16.5714 10.2858C16.8745 10.2858 17.1652 10.4062 17.3795 10.6206C17.5939 10.8349 17.7143 11.1256 17.7143 11.4287V13.7144C17.7143 14.0175 17.5939 14.3082 17.3795 14.5225C17.1652 14.7368 16.8745 14.8572 16.5714 14.8572C16.2683 14.8572 15.9776 14.7368 15.7633 14.5225C15.549 14.3082 15.4285 14.0175 15.4285 13.7144V11.4287C15.4285 11.1256 15.549 10.8349 15.7633 10.6206C15.9776 10.4062 16.2683 10.2858 16.5714 10.2858V10.2858Z" stroke="black" stroke-linecap="round" stroke-linejoin="round"/>
</g>
</svg>
